# MagicaVoxel @ Ephtracy

# group
o 

# material
mtllib Sawblade Frog.mtl
usemtl palette

# normals
vn -1 0 0
vn 1 0 0
vn 0 0 1
vn 0 0 -1
vn 0 -1 0
vn 0 1 0

# texcoords
vt 0.208984 0.5
vt 0.400391 0.5
vt 0.955078 0.5
vt 0.962891 0.5

# verts
v -0.4 0 0.4
v -0.4 0 0.2
v -0.4 0 -0.3
v -0.4 0 -0.5
v -0.4 0.1 0.4
v -0.4 0.1 0.2
v -0.4 0.1 -0.3
v -0.4 0.1 -0.5
v -0.4 0.2 0.4
v -0.4 0.2 0.2
v -0.4 0.2 0.1
v -0.4 0.2 -0.2
v -0.4 0.2 -0.3
v -0.4 0.2 -0.5
v -0.4 0.3 0.4
v -0.4 0.3 0.1
v -0.4 0.3 -0.2
v -0.4 0.3 -0.5
v -0.4 0.5 0.4
v -0.4 0.5 -0.5
v -0.4 0.6 0.4
v -0.4 0.6 0.1
v -0.4 0.6 -0.2
v -0.4 0.6 -0.5
v -0.4 0.7 0.1
v -0.4 0.7 -0.2
v -0.3 0 0.2
v -0.3 0 -0.3
v -0.3 0.1 0.3
v -0.3 0.1 0.2
v -0.3 0.1 -0.3
v -0.3 0.1 -0.4
v -0.3 0.2 0.3
v -0.3 0.2 0.2
v -0.3 0.2 -0.3
v -0.3 0.2 -0.4
v -0.3 0.3 0.4
v -0.3 0.3 0.3
v -0.3 0.3 -0.4
v -0.3 0.3 -0.5
v -0.3 0.4 0.4
v -0.3 0.4 0.3
v -0.3 0.4 -0.4
v -0.3 0.4 -0.5
v -0.3 0.6 0.3
v -0.3 0.6 0.1
v -0.3 0.6 -0.2
v -0.3 0.6 -0.4
v -0.3 0.7 0.3
v -0.3 0.7 0.1
v -0.3 0.7 -0.2
v -0.3 0.7 -0.4
v -0.3 0.8 0.1
v -0.3 0.8 -0.2
v -0.2 0.1 0.4
v -0.2 0.1 0.3
v -0.2 0.1 -0.4
v -0.2 0.1 -0.5
v -0.2 0.2 0.4
v -0.2 0.2 0.3
v -0.2 0.2 0.1
v -0.2 0.2 -0.2
v -0.2 0.2 -0.4
v -0.2 0.2 -0.5
v -0.2 0.3 0.3
v -0.2 0.3 0.1
v -0.2 0.3 -0.2
v -0.2 0.3 -0.4
v -0.2 0.4 0.4
v -0.2 0.4 0.3
v -0.2 0.4 -0.4
v -0.2 0.4 -0.5
v -0.2 0.5 0.4
v -0.2 0.5 0.3
v -0.2 0.5 -0.4
v -0.2 0.5 -0.5
v -0.2 0.7 0.4
v -0.2 0.7 0.3
v -0.2 0.7 0.1
v -0.2 0.7 -0.2
v -0.2 0.7 -0.4
v -0.2 0.7 -0.5
v -0.2 0.8 0.4
v -0.2 0.8 0.3
v -0.2 0.8 0.1
v -0.2 0.8 -0.2
v -0.2 0.8 -0.4
v -0.2 0.8 -0.5
v -0.2 0.9 0.4
v -0.2 0.9 0.3
v -0.2 0.9 0.1
v -0.2 0.9 -0.2
v -0.2 0.9 -0.4
v -0.2 0.9 -0.5
v -0.1 0.2 0.4
v -0.1 0.2 0.3
v -0.1 0.2 -0.4
v -0.1 0.2 -0.5
v -0.1 0.3 0.4
v -0.1 0.3 0.3
v -0.1 0.3 -0.4
v -0.1 0.3 -0.5
v -0.1 0.8 0.1
v -0.1 0.8 0
v -0.1 0.8 -0.1
v -0.1 0.8 -0.2
v -0.1 0.9 0.3
v -0.1 0.9 0.1
v -0.1 0.9 0
v -0.1 0.9 -0.1
v -0.1 0.9 -0.2
v -0.1 0.9 -0.4
v -0.1 1 0.3
v -0.1 1 0.1
v -0.1 1 -0.2
v -0.1 1 -0.4
v -0.2 0.2 0.4
v -0.2 0.2 0.3
v -0.2 0.2 -0.4
v -0.2 0.2 -0.5
v -0.2 0.3 0.4
v -0.2 0.3 0.3
v -0.2 0.3 -0.4
v -0.2 0.3 -0.5
v -0.1 0.4 -0.4
v -0.1 0.4 -0.5
v -0.1 0.5 0.4
v -0.1 0.5 0.3
v -0.1 0.6 0.4
v -0.1 0.6 0.3
v -0.1 0.6 -0.4
v -0.1 0.6 -0.5
v 0.1 0.7 0.4
v 0.1 0.7 0.3
v 0.1 0.7 -0.4
v 0.1 0.7 -0.5
v 0.1 0.8 0.1
v 0.1 0.8 0
v 0.1 0.8 -0.1
v 0.1 0.8 -0.2
v 0.1 0.9 0.4
v 0.1 0.9 0.3
v 0.1 0.9 0.1
v 0.1 0.9 0
v 0.1 0.9 -0.1
v 0.1 0.9 -0.2
v 0.1 0.9 -0.4
v 0.1 0.9 -0.5
v 0.1 1 0.3
v 0.1 1 0.1
v 0.1 1 -0.2
v 0.1 1 -0.4
v 0.2 0.3 -0.4
v 0.2 0.3 -0.5
v 0.2 0.4 0.4
v 0.2 0.4 0.3
v 0.2 0.4 -0.4
v 0.2 0.4 -0.5
v 0.2 0.5 0.4
v 0.2 0.5 0.3
v 0.2 0.7 0.3
v 0.2 0.7 0.2
v 0.2 0.7 -0.3
v 0.2 0.7 -0.4
v 0.2 0.8 0.2
v 0.2 0.8 0.1
v 0.2 0.8 -0.2
v 0.2 0.8 -0.3
v 0.2 0.9 0.3
v 0.2 0.9 0.1
v 0.2 0.9 -0.2
v 0.2 0.9 -0.4
v 0.3 0 0.4
v 0.3 0 0.2
v 0.3 0 -0.3
v 0.3 0 -0.5
v 0.3 0.3 -0.4
v 0.3 0.3 -0.5
v 0.3 0.4 0.4
v 0.3 0.4 0.3
v 0.3 0.6 0.2
v 0.3 0.6 0.1
v 0.3 0.6 -0.2
v 0.3 0.6 -0.3
v 0.3 0.7 0.3
v 0.3 0.7 0.2
v 0.3 0.7 0.1
v 0.3 0.7 0
v 0.3 0.7 -0.1
v 0.3 0.7 -0.2
v 0.3 0.7 -0.3
v 0.3 0.7 -0.4
v 0.3 0.8 0.2
v 0.3 0.8 0
v 0.3 0.8 -0.1
v 0.3 0.8 -0.3
v 0.4 0 0.2
v 0.4 0 0.1
v 0.4 0 -0.2
v 0.4 0 -0.3
v 0.4 0.1 0.1
v 0.4 0.1 -0.2
v 0.4 0.3 0.1
v 0.4 0.3 -0.2
v 0.4 0.4 0.1
v 0.4 0.4 -0.2
v 0.4 0.6 0.2
v 0.4 0.6 0.1
v 0.4 0.6 -0.2
v 0.4 0.6 -0.3
v 0.4 0.7 0.1
v 0.4 0.7 -0.2
v 0.5 0 0.1
v 0.5 0 -0.2
v 0.5 0.1 0.1
v 0.5 0.1 0
v 0.5 0.1 -0.1
v 0.5 0.1 -0.2
v 0.5 0.2 0
v 0.5 0.2 -0.1
v 0.5 0.3 0.1
v 0.5 0.3 -0.2
v 0.5 0.4 0.1
v 0.5 0.4 0
v 0.5 0.4 -0.1
v 0.5 0.4 -0.2
v 0.5 0.5 0
v 0.5 0.5 -0.1
v 0.5 0.6 0.1
v 0.5 0.6 -0.2
v -0.4 0 0.4
v -0.4 0.1 0.4
v -0.4 0.2 0.4
v -0.4 0.3 0.4
v -0.4 0.5 0.4
v -0.4 0.6 0.4
v -0.3 0.3 0.4
v -0.3 0.4 0.4
v -0.2 0.1 0.4
v -0.2 0.2 0.4
v -0.2 0.3 0.4
v -0.2 0.4 0.4
v -0.2 0.5 0.4
v -0.2 0.7 0.4
v -0.2 0.8 0.4
v -0.2 0.9 0.4
v -0.1 0.2 0.4
v -0.1 0.3 0.4
v -0.1 0.5 0.4
v -0.1 0.6 0.4
v -0.1 0.8 0.4
v -0.1 0.9 0.4
v 0.1 0.7 0.4
v 0.1 0.9 0.4
v 0.2 0.4 0.4
v 0.2 0.5 0.4
v 0.3 0 0.4
v 0.3 0.4 0.4
v -0.3 0.1 0.3
v -0.3 0.2 0.3
v -0.3 0.6 0.3
v -0.3 0.7 0.3
v -0.2 0.1 0.3
v -0.2 0.2 0.3
v -0.2 0.3 0.3
v -0.2 0.7 0.3
v -0.1 0.2 0.3
v -0.1 0.3 0.3
v -0.1 0.5 0.3
v -0.1 0.6 0.3
v -0.1 0.9 0.3
v -0.1 1 0.3
v 0.1 0.7 0.3
v 0.1 0.9 0.3
v 0.1 1 0.3
v 0.2 0.4 0.3
v 0.2 0.5 0.3
v 0.2 0.7 0.3
v 0.2 0.9 0.3
v 0.3 0.4 0.3
v 0.3 0.7 0.3
v -0.4 0.1 0.2
v -0.4 0.2 0.2
v -0.3 0.1 0.2
v -0.3 0.2 0.2
v 0.2 0.7 0.2
v 0.2 0.8 0.2
v 0.3 0 0.2
v 0.3 0.6 0.2
v 0.3 0.7 0.2
v 0.3 0.8 0.2
v 0.4 0 0.2
v 0.4 0.6 0.2
v -0.4 0.6 0.1
v -0.4 0.7 0.1
v -0.3 0.6 0.1
v -0.3 0.7 0.1
v -0.3 0.8 0.1
v -0.2 0.7 0.1
v -0.2 0.8 0.1
v 0.3 0.6 0.1
v 0.3 0.7 0.1
v 0.4 0 0.1
v 0.4 0.1 0.1
v 0.4 0.3 0.1
v 0.4 0.4 0.1
v 0.4 0.6 0.1
v 0.4 0.7 0.1
v 0.5 0 0.1
v 0.5 0.1 0.1
v 0.5 0.3 0.1
v 0.5 0.4 0.1
v 0.5 0.6 0.1
v -0.1 0.8 -0.1
v -0.1 0.9 -0.1
v 0 0.8 -0.1
v 0 0.9 -0.1
v 0.1 0.8 -0.1
v 0.1 0.9 -0.1
v -0.4 0.2 -0.2
v -0.4 0.3 -0.2
v -0.3 0.2 -0.2
v -0.3 0.3 -0.2
v -0.2 0.2 -0.2
v -0.2 0.3 -0.2
v -0.2 0.8 -0.2
v -0.2 0.9 -0.2
v -0.1 0.8 -0.2
v -0.1 0.9 -0.2
v -0.1 1 -0.2
v 0 0.9 -0.2
v 0.1 0.8 -0.2
v 0.1 0.9 -0.2
v 0.1 1 -0.2
v 0.2 0.8 -0.2
v 0.2 0.9 -0.2
v -0.4 0 -0.3
v -0.4 0.1 -0.3
v -0.3 0 -0.3
v -0.3 0.1 -0.3
v -0.3 0.3 -0.4
v -0.3 0.4 -0.4
v -0.2 0.3 -0.4
v -0.2 0.4 -0.4
v -0.3 0.3 0.3
v -0.3 0.4 0.3
v -0.2 0.3 0.3
v -0.2 0.4 0.3
v -0.4 0 0.2
v -0.4 0.1 0.2
v -0.3 0 0.2
v -0.3 0.1 0.2
v -0.4 0.2 0.1
v -0.4 0.3 0.1
v -0.3 0.2 0.1
v -0.3 0.3 0.1
v -0.2 0.2 0.1
v -0.2 0.3 0.1
v -0.2 0.8 0.1
v -0.2 0.9 0.1
v -0.1 0.8 0.1
v -0.1 0.9 0.1
v -0.1 1 0.1
v 0 0.9 0.1
v 0.1 0.8 0.1
v 0.1 0.9 0.1
v 0.1 1 0.1
v 0.2 0.8 0.1
v 0.2 0.9 0.1
v -0.1 0.8 0
v -0.1 0.9 0
v 0 0.8 0
v 0 0.9 0
v 0.1 0.8 0
v 0.1 0.9 0
v -0.4 0.6 -0.2
v -0.4 0.7 -0.2
v -0.3 0.6 -0.2
v -0.3 0.7 -0.2
v -0.3 0.8 -0.2
v -0.2 0.7 -0.2
v -0.2 0.8 -0.2
v 0.3 0.6 -0.2
v 0.3 0.7 -0.2
v 0.4 0 -0.2
v 0.4 0.1 -0.2
v 0.4 0.3 -0.2
v 0.4 0.4 -0.2
v 0.4 0.6 -0.2
v 0.4 0.7 -0.2
v 0.5 0 -0.2
v 0.5 0.1 -0.2
v 0.5 0.3 -0.2
v 0.5 0.4 -0.2
v 0.5 0.6 -0.2
v -0.4 0.1 -0.3
v -0.4 0.2 -0.3
v -0.3 0.1 -0.3
v -0.3 0.2 -0.3
v 0.2 0.7 -0.3
v 0.2 0.8 -0.3
v 0.3 0 -0.3
v 0.3 0.6 -0.3
v 0.3 0.7 -0.3
v 0.3 0.8 -0.3
v 0.4 0 -0.3
v 0.4 0.6 -0.3
v -0.3 0.1 -0.4
v -0.3 0.2 -0.4
v -0.3 0.6 -0.4
v -0.3 0.7 -0.4
v -0.2 0.1 -0.4
v -0.2 0.2 -0.4
v -0.2 0.3 -0.4
v -0.2 0.7 -0.4
v -0.1 0.2 -0.4
v -0.1 0.3 -0.4
v -0.1 0.4 -0.4
v -0.1 0.6 -0.4
v -0.1 0.9 -0.4
v -0.1 1 -0.4
v 0.1 0.7 -0.4
v 0.1 0.9 -0.4
v 0.1 1 -0.4
v 0.2 0.3 -0.4
v 0.2 0.4 -0.4
v 0.2 0.7 -0.4
v 0.2 0.9 -0.4
v 0.3 0.3 -0.4
v 0.3 0.7 -0.4
v -0.4 0 -0.5
v -0.4 0.1 -0.5
v -0.4 0.2 -0.5
v -0.4 0.3 -0.5
v -0.4 0.5 -0.5
v -0.4 0.6 -0.5
v -0.3 0.3 -0.5
v -0.3 0.4 -0.5
v -0.2 0.1 -0.5
v -0.2 0.2 -0.5
v -0.2 0.3 -0.5
v -0.2 0.4 -0.5
v -0.2 0.5 -0.5
v -0.2 0.7 -0.5
v -0.2 0.8 -0.5
v -0.2 0.9 -0.5
v -0.1 0.2 -0.5
v -0.1 0.3 -0.5
v -0.1 0.4 -0.5
v -0.1 0.6 -0.5
v -0.1 0.8 -0.5
v -0.1 0.9 -0.5
v 0.1 0.7 -0.5
v 0.1 0.9 -0.5
v 0.2 0.3 -0.5
v 0.2 0.4 -0.5
v 0.3 0 -0.5
v 0.3 0.3 -0.5
v -0.4 0 0.4
v 0.3 0 0.4
v -0.4 0 0.2
v -0.3 0 0.2
v 0.3 0 0.2
v 0.4 0 0.2
v 0.4 0 0.1
v 0.5 0 0.1
v 0.4 0 -0.2
v 0.5 0 -0.2
v -0.4 0 -0.3
v -0.3 0 -0.3
v 0.3 0 -0.3
v 0.4 0 -0.3
v -0.4 0 -0.5
v 0.3 0 -0.5
v -0.4 0.1 0.2
v -0.3 0.1 0.2
v -0.4 0.1 -0.3
v -0.3 0.1 -0.3
v -0.4 0.2 0.4
v -0.2 0.2 0.4
v -0.3 0.2 0.3
v -0.2 0.2 0.3
v -0.4 0.2 0.2
v -0.3 0.2 0.2
v -0.4 0.2 -0.3
v -0.3 0.2 -0.3
v -0.3 0.2 -0.4
v -0.2 0.2 -0.4
v -0.4 0.2 -0.5
v -0.2 0.2 -0.5
v -0.2 0.3 0.4
v -0.1 0.3 0.4
v -0.2 0.3 0.3
v -0.1 0.3 0.3
v -0.2 0.3 -0.4
v -0.1 0.3 -0.4
v -0.2 0.3 -0.5
v -0.1 0.3 -0.5
v -0.4 0.5 0.4
v -0.2 0.5 0.4
v -0.3 0.5 0.3
v -0.2 0.5 0.3
v -0.3 0.5 -0.4
v -0.2 0.5 -0.4
v -0.4 0.5 -0.5
v -0.2 0.5 -0.5
v -0.2 0.7 0.4
v 0.1 0.7 0.4
v -0.2 0.7 0.3
v 0.1 0.7 0.3
v -0.2 0.7 -0.4
v 0.1 0.7 -0.4
v -0.2 0.7 -0.5
v 0.1 0.7 -0.5
v -0.4 0.1 0.4
v -0.2 0.1 0.4
v -0.3 0.1 0.3
v -0.2 0.1 0.3
v -0.4 0.1 0.2
v -0.3 0.1 0.2
v -0.4 0.1 -0.3
v -0.3 0.1 -0.3
v -0.3 0.1 -0.4
v -0.2 0.1 -0.4
v -0.4 0.1 -0.5
v -0.2 0.1 -0.5
v -0.2 0.2 0.4
v -0.1 0.2 0.4
v -0.2 0.2 0.3
v -0.1 0.2 0.3
v -0.4 0.2 0.1
v -0.3 0.2 0.1
v -0.2 0.2 0.1
v -0.4 0.2 -0.2
v -0.3 0.2 -0.2
v -0.2 0.2 -0.2
v -0.2 0.2 -0.4
v -0.1 0.2 -0.4
v -0.2 0.2 -0.5
v -0.1 0.2 -0.5
v -0.4 0.3 0.4
v -0.3 0.3 0.4
v -0.3 0.3 0.3
v -0.2 0.3 0.3
v -0.4 0.3 0.1
v -0.3 0.3 0.1
v -0.2 0.3 0.1
v -0.4 0.3 -0.2
v -0.3 0.3 -0.2
v -0.2 0.3 -0.2
v -0.3 0.3 -0.4
v -0.2 0.3 -0.4
v 0.2 0.3 -0.4
v 0.3 0.3 -0.4
v -0.4 0.3 -0.5
v -0.3 0.3 -0.5
v 0.2 0.3 -0.5
v 0.3 0.3 -0.5
v -0.3 0.4 0.4
v -0.2 0.4 0.4
v 0.2 0.4 0.4
v 0.3 0.4 0.4
v -0.3 0.4 0.3
v -0.2 0.4 0.3
v 0.2 0.4 0.3
v 0.3 0.4 0.3
v -0.3 0.4 -0.4
v -0.2 0.4 -0.4
v -0.1 0.4 -0.4
v 0.2 0.4 -0.4
v -0.3 0.4 -0.5
v -0.2 0.4 -0.5
v -0.1 0.4 -0.5
v 0.2 0.4 -0.5
v -0.1 0.5 0.4
v 0.2 0.5 0.4
v -0.1 0.5 0.3
v 0.2 0.5 0.3
v -0.4 0.6 0.4
v -0.1 0.6 0.4
v -0.3 0.6 0.3
v -0.1 0.6 0.3
v 0.3 0.6 0.2
v 0.4 0.6 0.2
v -0.4 0.6 0.1
v -0.3 0.6 0.1
v 0.3 0.6 0.1
v 0.4 0.6 0.1
v 0.5 0.6 0.1
v -0.4 0.6 -0.2
v -0.3 0.6 -0.2
v 0.3 0.6 -0.2
v 0.4 0.6 -0.2
v 0.5 0.6 -0.2
v 0.3 0.6 -0.3
v 0.4 0.6 -0.3
v -0.3 0.6 -0.4
v -0.1 0.6 -0.4
v -0.4 0.6 -0.5
v -0.1 0.6 -0.5
v -0.3 0.7 0.3
v -0.2 0.7 0.3
v 0.2 0.7 0.3
v 0.3 0.7 0.3
v 0.2 0.7 0.2
v 0.3 0.7 0.2
v -0.4 0.7 0.1
v -0.3 0.7 0.1
v -0.2 0.7 0.1
v 0.3 0.7 0.1
v 0.4 0.7 0.1
v 0.3 0.7 0
v 0.3 0.7 -0.1
v -0.4 0.7 -0.2
v -0.3 0.7 -0.2
v -0.2 0.7 -0.2
v 0.3 0.7 -0.2
v 0.4 0.7 -0.2
v 0.2 0.7 -0.3
v 0.3 0.7 -0.3
v -0.3 0.7 -0.4
v -0.2 0.7 -0.4
v 0.2 0.7 -0.4
v 0.3 0.7 -0.4
v 0.2 0.8 0.2
v 0.3 0.8 0.2
v -0.3 0.8 0.1
v -0.2 0.8 0.1
v -0.1 0.8 0.1
v 0.1 0.8 0.1
v 0.2 0.8 0.1
v -0.1 0.8 0
v 0 0.8 0
v 0.1 0.8 0
v 0.2 0.8 0
v 0.3 0.8 0
v -0.1 0.8 -0.1
v 0 0.8 -0.1
v 0.1 0.8 -0.1
v 0.2 0.8 -0.1
v 0.3 0.8 -0.1
v -0.3 0.8 -0.2
v -0.2 0.8 -0.2
v -0.1 0.8 -0.2
v 0.1 0.8 -0.2
v 0.2 0.8 -0.2
v 0.2 0.8 -0.3
v 0.3 0.8 -0.3
v -0.2 0.9 0.4
v -0.1 0.9 0.4
v 0.1 0.9 0.4
v -0.2 0.9 0.3
v -0.1 0.9 0.3
v 0.1 0.9 0.3
v 0.2 0.9 0.3
v -0.2 0.9 0.1
v -0.1 0.9 0.1
v 0 0.9 0.1
v 0.1 0.9 0.1
v 0.2 0.9 0.1
v -0.1 0.9 0
v 0 0.9 0
v 0.1 0.9 0
v -0.1 0.9 -0.1
v 0 0.9 -0.1
v 0.1 0.9 -0.1
v -0.2 0.9 -0.2
v -0.1 0.9 -0.2
v 0 0.9 -0.2
v 0.1 0.9 -0.2
v 0.2 0.9 -0.2
v -0.2 0.9 -0.4
v -0.1 0.9 -0.4
v 0.1 0.9 -0.4
v 0.2 0.9 -0.4
v -0.2 0.9 -0.5
v -0.1 0.9 -0.5
v 0.1 0.9 -0.5
v -0.1 1 0.3
v 0.1 1 0.3
v -0.1 1 0.1
v 0.1 1 0.1
v -0.1 1 -0.2
v 0.1 1 -0.2
v -0.1 1 -0.4
v 0.1 1 -0.4

# faces
f 5/2/1 2/2/1 1/2/1
f 6/2/1 2/2/1 5/2/1
f 7/2/1 4/2/1 3/2/1
f 8/2/1 4/2/1 7/2/1
f 10/1/1 7/1/1 6/1/1
f 11/1/1 7/1/1 10/1/1
f 12/1/1 7/1/1 11/1/1
f 13/1/1 7/1/1 12/1/1
f 15/1/1 10/1/1 9/1/1
f 15/1/1 11/1/1 10/1/1
f 16/1/1 11/1/1 15/1/1
f 17/1/1 14/1/1 13/1/1
f 17/1/1 13/1/1 12/1/1
f 18/1/1 14/1/1 17/1/1
f 21/1/1 20/1/1 19/1/1
f 22/1/1 20/1/1 21/1/1
f 23/1/1 20/1/1 22/1/1
f 24/1/1 20/1/1 23/1/1
f 25/1/1 23/1/1 22/1/1
f 26/1/1 23/1/1 25/1/1
f 30/2/1 28/2/1 27/2/1
f 31/2/1 28/2/1 30/2/1
f 33/2/1 30/2/1 29/2/1
f 34/2/1 30/2/1 33/2/1
f 35/2/1 32/2/1 31/2/1
f 36/2/1 32/2/1 35/2/1
f 41/1/1 38/1/1 37/1/1
f 42/1/1 38/1/1 41/1/1
f 43/1/1 40/1/1 39/1/1
f 44/1/1 40/1/1 43/1/1
f 49/2/1 46/2/1 45/2/1
f 50/2/1 46/2/1 49/2/1
f 51/2/1 48/2/1 47/2/1
f 52/2/1 48/2/1 51/2/1
f 53/2/1 51/2/1 50/2/1
f 54/2/1 51/2/1 53/2/1
f 59/2/1 56/2/1 55/2/1
f 60/2/1 56/2/1 59/2/1
f 63/2/1 58/2/1 57/2/1
f 64/2/1 58/2/1 63/2/1
f 66/3/1 62/3/1 61/3/1
f 67/3/1 62/3/1 66/3/1
f 70/3/1 66/3/1 65/3/1
f 70/3/1 68/3/1 67/3/1
f 70/3/1 67/3/1 66/3/1
f 71/3/1 68/3/1 70/3/1
f 73/1/1 70/1/1 69/1/1
f 74/3/1 71/3/1 70/3/1
f 74/1/1 70/1/1 73/1/1
f 75/1/1 72/1/1 71/1/1
f 75/3/1 71/3/1 74/3/1
f 76/1/1 72/1/1 75/1/1
f 83/4/1 78/4/1 77/4/1
f 83/4/1 79/4/1 78/4/1
f 84/4/1 79/4/1 83/4/1
f 85/4/1 79/4/1 84/4/1
f 86/4/1 82/4/1 81/4/1
f 86/4/1 81/4/1 80/4/1
f 87/4/1 82/4/1 86/4/1
f 88/4/1 82/4/1 87/4/1
f 89/3/1 84/3/1 83/3/1
f 90/4/1 85/4/1 84/4/1
f 90/3/1 84/3/1 89/3/1
f 91/4/1 85/4/1 90/4/1
f 92/4/1 87/4/1 86/4/1
f 93/3/1 88/3/1 87/3/1
f 93/4/1 87/4/1 92/4/1
f 94/3/1 88/3/1 93/3/1
f 99/2/1 96/2/1 95/2/1
f 100/2/1 96/2/1 99/2/1
f 101/2/1 98/2/1 97/2/1
f 102/2/1 98/2/1 101/2/1
f 108/2/1 104/2/1 103/2/1
f 109/2/1 104/2/1 108/2/1
f 110/2/1 106/2/1 105/2/1
f 111/2/1 106/2/1 110/2/1
f 113/2/1 108/2/1 107/2/1
f 114/2/1 108/2/1 113/2/1
f 115/2/1 112/2/1 111/2/1
f 116/2/1 112/2/1 115/2/1
f 117/1/2 118/1/2 121/1/2
f 121/1/2 118/1/2 122/1/2
f 119/1/2 120/1/2 123/1/2
f 123/1/2 120/1/2 124/1/2
f 127/1/2 128/1/2 129/1/2
f 129/1/2 128/1/2 130/1/2
f 125/1/2 126/1/2 131/1/2
f 131/1/2 126/1/2 132/1/2
f 133/4/2 134/4/2 141/4/2
f 141/4/2 134/4/2 142/4/2
f 137/1/2 138/1/2 143/1/2
f 143/1/2 138/1/2 144/1/2
f 139/1/2 140/1/2 145/1/2
f 145/1/2 140/1/2 146/1/2
f 135/4/2 136/4/2 147/4/2
f 147/4/2 136/4/2 148/4/2
f 142/2/2 143/2/2 149/2/2
f 149/2/2 143/2/2 150/2/2
f 146/2/2 147/2/2 151/2/2
f 151/2/2 147/2/2 152/2/2
f 153/2/2 154/2/2 157/2/2
f 157/2/2 154/2/2 158/2/2
f 155/2/2 156/2/2 159/2/2
f 159/2/2 156/2/2 160/2/2
f 161/2/2 162/2/2 165/2/2
f 163/2/2 164/2/2 168/2/2
f 165/2/2 166/2/2 169/2/2
f 161/2/2 165/2/2 169/2/2
f 169/2/2 166/2/2 170/2/2
f 167/2/2 168/2/2 171/2/2
f 168/2/2 164/2/2 172/2/2
f 171/2/2 168/2/2 172/2/2
f 175/2/2 176/2/2 177/2/2
f 177/2/2 176/2/2 178/2/2
f 173/2/2 174/2/2 179/2/2
f 179/2/2 174/2/2 180/2/2
f 180/2/2 174/2/2 181/2/2
f 175/2/2 177/2/2 184/2/2
f 181/2/2 182/2/2 185/2/2
f 180/2/2 181/2/2 185/2/2
f 185/2/2 182/2/2 186/2/2
f 186/2/2 182/2/2 187/2/2
f 183/2/2 184/2/2 190/2/2
f 184/2/2 177/2/2 191/2/2
f 190/2/2 184/2/2 191/2/2
f 191/2/2 177/2/2 192/2/2
f 186/2/2 187/2/2 193/2/2
f 187/2/2 188/2/2 193/2/2
f 188/1/2 189/1/2 194/1/2
f 193/2/2 188/2/2 194/2/2
f 189/2/2 190/2/2 195/2/2
f 194/1/2 189/1/2 195/1/2
f 190/2/2 191/2/2 195/2/2
f 195/2/2 191/2/2 196/2/2
f 197/2/2 198/2/2 201/2/2
f 199/2/2 200/2/2 202/2/2
f 197/2/2 201/2/2 203/2/2
f 202/2/2 200/2/2 204/2/2
f 197/2/2 203/2/2 205/2/2
f 204/2/2 200/2/2 206/2/2
f 197/2/2 205/2/2 207/2/2
f 207/2/2 205/2/2 208/2/2
f 206/2/2 200/2/2 209/2/2
f 209/2/2 200/2/2 210/2/2
f 208/1/2 209/1/2 211/1/2
f 211/1/2 209/1/2 212/1/2
f 213/1/2 214/1/2 215/1/2
f 215/1/2 214/1/2 216/1/2
f 216/1/2 214/1/2 217/1/2
f 217/1/2 214/1/2 218/1/2
f 215/2/2 216/2/2 219/2/2
f 216/1/2 217/1/2 219/1/2
f 217/2/2 218/2/2 220/2/2
f 219/1/2 217/1/2 220/1/2
f 215/2/2 219/2/2 221/2/2
f 219/2/2 220/2/2 221/2/2
f 220/2/2 218/2/2 222/2/2
f 221/2/2 220/2/2 222/2/2
f 221/1/2 222/1/2 223/1/2
f 223/1/2 222/1/2 224/1/2
f 224/1/2 222/1/2 225/1/2
f 225/1/2 222/1/2 226/1/2
f 223/2/2 224/2/2 227/2/2
f 224/1/2 225/1/2 227/1/2
f 225/2/2 226/2/2 228/2/2
f 227/1/2 225/1/2 228/1/2
f 223/2/2 227/2/2 229/2/2
f 227/2/2 228/2/2 229/2/2
f 228/2/2 226/2/2 230/2/2
f 229/2/2 228/2/2 230/2/2
f 237/1/3 234/1/3 233/1/3
f 239/2/3 232/2/3 231/2/3
f 240/1/3 238/1/3 237/1/3
f 240/1/3 237/1/3 233/1/3
f 241/1/3 238/1/3 240/1/3
f 242/1/3 238/1/3 241/1/3
f 243/1/3 236/1/3 235/1/3
f 247/2/3 240/2/3 239/2/3
f 248/1/3 242/1/3 241/1/3
f 248/1/3 243/1/3 242/1/3
f 249/1/3 236/1/3 243/1/3
f 249/1/3 243/1/3 248/1/3
f 250/1/3 236/1/3 249/1/3
f 251/3/3 246/3/3 245/3/3
f 251/4/3 245/4/3 244/4/3
f 252/3/3 246/3/3 251/3/3
f 253/4/3 251/4/3 244/4/3
f 253/4/3 252/4/3 251/4/3
f 254/4/3 252/4/3 253/4/3
f 255/2/3 249/2/3 248/2/3
f 255/2/3 248/2/3 247/2/3
f 256/2/3 249/2/3 255/2/3
f 257/2/3 239/2/3 231/2/3
f 257/2/3 247/2/3 239/2/3
f 257/2/3 255/2/3 247/2/3
f 258/2/3 255/2/3 257/2/3
f 263/2/3 260/2/3 259/2/3
f 264/2/3 260/2/3 263/2/3
f 266/2/3 262/2/3 261/2/3
f 267/2/3 265/2/3 264/2/3
f 268/2/3 265/2/3 267/2/3
f 270/2/3 266/2/3 261/2/3
f 273/2/3 270/2/3 269/2/3
f 273/2/3 266/2/3 270/2/3
f 274/2/3 272/2/3 271/2/3
f 275/2/3 272/2/3 274/2/3
f 277/2/3 273/2/3 269/2/3
f 277/2/3 274/2/3 273/2/3
f 278/2/3 274/2/3 277/2/3
f 279/2/3 274/2/3 278/2/3
f 280/2/3 277/2/3 276/2/3
f 280/2/3 278/2/3 277/2/3
f 281/2/3 278/2/3 280/2/3
f 284/1/3 283/1/3 282/1/3
f 285/1/3 283/1/3 284/1/3
f 290/2/3 287/2/3 286/2/3
f 291/2/3 287/2/3 290/2/3
f 292/2/3 289/2/3 288/2/3
f 293/2/3 289/2/3 292/2/3
f 296/1/3 295/1/3 294/1/3
f 297/1/3 295/1/3 296/1/3
f 299/2/3 298/2/3 297/2/3
f 300/2/3 298/2/3 299/2/3
f 307/1/3 302/1/3 301/1/3
f 308/1/3 302/1/3 307/1/3
f 309/1/3 304/1/3 303/1/3
f 310/2/3 305/2/3 304/2/3
f 310/1/3 304/1/3 309/1/3
f 311/1/3 306/1/3 305/1/3
f 311/2/3 305/2/3 310/2/3
f 312/2/3 307/2/3 306/2/3
f 312/1/3 306/1/3 311/1/3
f 313/2/3 307/2/3 312/2/3
f 316/2/3 315/2/3 314/2/3
f 317/2/3 315/2/3 316/2/3
f 318/1/3 317/1/3 316/1/3
f 319/1/3 317/1/3 318/1/3
f 322/1/3 321/1/3 320/1/3
f 323/1/3 321/1/3 322/1/3
f 324/3/3 323/3/3 322/3/3
f 325/3/3 323/3/3 324/3/3
f 328/4/3 327/4/3 326/4/3
f 329/4/3 327/4/3 328/4/3
f 331/2/3 330/2/3 329/2/3
f 333/2/3 330/2/3 331/2/3
f 334/2/3 330/2/3 333/2/3
f 335/2/3 333/2/3 332/2/3
f 336/2/3 333/2/3 335/2/3
f 339/2/3 338/2/3 337/2/3
f 340/2/3 338/2/3 339/2/3
f 343/1/3 342/1/3 341/1/3
f 344/1/3 342/1/3 343/1/3
f 345/1/4 346/1/4 347/1/4
f 347/1/4 346/1/4 348/1/4
f 349/2/4 350/2/4 351/2/4
f 351/2/4 350/2/4 352/2/4
f 353/1/4 354/1/4 355/1/4
f 355/1/4 354/1/4 356/1/4
f 355/3/4 356/3/4 357/3/4
f 357/3/4 356/3/4 358/3/4
f 359/4/4 360/4/4 361/4/4
f 361/4/4 360/4/4 362/4/4
f 362/2/4 363/2/4 364/2/4
f 364/2/4 363/2/4 366/2/4
f 366/2/4 363/2/4 367/2/4
f 365/2/4 366/2/4 368/2/4
f 368/2/4 366/2/4 369/2/4
f 370/2/4 371/2/4 372/2/4
f 372/2/4 371/2/4 373/2/4
f 372/1/4 373/1/4 374/1/4
f 374/1/4 373/1/4 375/1/4
f 376/1/4 377/1/4 378/1/4
f 378/1/4 377/1/4 379/1/4
f 379/2/4 380/2/4 381/2/4
f 381/2/4 380/2/4 382/2/4
f 383/1/4 384/1/4 389/1/4
f 389/1/4 384/1/4 390/1/4
f 385/1/4 386/1/4 391/1/4
f 386/2/4 387/2/4 392/2/4
f 391/1/4 386/1/4 392/1/4
f 387/1/4 388/1/4 393/1/4
f 392/2/4 387/2/4 393/2/4
f 388/2/4 389/2/4 394/2/4
f 393/1/4 388/1/4 394/1/4
f 394/2/4 389/2/4 395/2/4
f 396/1/4 397/1/4 398/1/4
f 398/1/4 397/1/4 399/1/4
f 400/2/4 401/2/4 404/2/4
f 404/2/4 401/2/4 405/2/4
f 402/2/4 403/2/4 406/2/4
f 406/2/4 403/2/4 407/2/4
f 408/2/4 409/2/4 412/2/4
f 412/2/4 409/2/4 413/2/4
f 410/2/4 411/2/4 415/2/4
f 413/2/4 414/2/4 416/2/4
f 416/2/4 414/2/4 417/2/4
f 410/2/4 415/2/4 419/2/4
f 418/2/4 419/2/4 422/2/4
f 419/2/4 415/2/4 422/2/4
f 420/2/4 421/2/4 423/2/4
f 423/2/4 421/2/4 424/2/4
f 418/2/4 422/2/4 426/2/4
f 422/2/4 423/2/4 426/2/4
f 426/2/4 423/2/4 427/2/4
f 427/2/4 423/2/4 428/2/4
f 425/2/4 426/2/4 429/2/4
f 426/2/4 427/2/4 429/2/4
f 429/2/4 427/2/4 430/2/4
f 433/1/4 434/1/4 437/1/4
f 431/2/4 432/2/4 439/2/4
f 437/1/4 438/1/4 440/1/4
f 433/1/4 437/1/4 440/1/4
f 440/1/4 438/1/4 441/1/4
f 441/1/4 438/1/4 442/1/4
f 435/1/4 436/1/4 443/1/4
f 439/2/4 440/2/4 447/2/4
f 441/1/4 442/1/4 448/1/4
f 442/1/4 443/1/4 448/1/4
f 448/1/4 443/1/4 449/1/4
f 443/1/4 436/1/4 450/1/4
f 449/1/4 443/1/4 450/1/4
f 445/3/4 446/3/4 451/3/4
f 444/4/4 445/4/4 451/4/4
f 451/3/4 446/3/4 452/3/4
f 444/4/4 451/4/4 453/4/4
f 451/4/4 452/4/4 453/4/4
f 453/4/4 452/4/4 454/4/4
f 447/2/4 448/2/4 455/2/4
f 448/2/4 449/2/4 455/2/4
f 455/2/4 449/2/4 456/2/4
f 431/2/4 439/2/4 457/2/4
f 439/2/4 447/2/4 457/2/4
f 447/2/4 455/2/4 457/2/4
f 457/2/4 455/2/4 458/2/4
f 461/2/5 460/2/5 459/2/5
f 462/2/5 460/2/5 461/2/5
f 463/2/5 460/2/5 462/2/5
f 465/2/5 464/2/5 463/2/5
f 465/2/5 463/2/5 462/2/5
f 467/2/5 465/2/5 462/2/5
f 467/1/5 466/1/5 465/1/5
f 468/1/5 466/1/5 467/1/5
f 470/2/5 467/2/5 462/2/5
f 471/2/5 467/2/5 470/2/5
f 472/2/5 467/2/5 471/2/5
f 473/2/5 470/2/5 469/2/5
f 473/2/5 471/2/5 470/2/5
f 474/2/5 471/2/5 473/2/5
f 477/1/5 476/1/5 475/1/5
f 478/1/5 476/1/5 477/1/5
f 481/1/5 480/1/5 479/1/5
f 482/1/5 480/1/5 481/1/5
f 483/1/5 481/1/5 479/1/5
f 484/1/5 481/1/5 483/1/5
f 487/1/5 486/1/5 485/1/5
f 489/1/5 487/1/5 485/1/5
f 489/1/5 488/1/5 487/1/5
f 490/1/5 488/1/5 489/1/5
f 493/1/5 492/1/5 491/1/5
f 494/1/5 492/1/5 493/1/5
f 497/1/5 496/1/5 495/1/5
f 498/1/5 496/1/5 497/1/5
f 501/1/5 500/1/5 499/1/5
f 502/1/5 500/1/5 501/1/5
f 503/1/5 501/1/5 499/1/5
f 503/3/5 502/3/5 501/3/5
f 504/3/5 502/3/5 503/3/5
f 505/1/5 503/1/5 499/1/5
f 505/1/5 504/1/5 503/1/5
f 506/1/5 504/1/5 505/1/5
f 509/4/5 508/4/5 507/4/5
f 510/4/5 508/4/5 509/4/5
f 513/4/5 512/4/5 511/4/5
f 514/4/5 512/4/5 513/4/5
f 515/2/6 516/2/6 517/2/6
f 517/2/6 516/2/6 518/2/6
f 515/2/6 517/2/6 519/2/6
f 519/2/6 517/2/6 520/2/6
f 521/2/6 522/2/6 523/2/6
f 521/2/6 523/2/6 525/2/6
f 523/2/6 524/2/6 525/2/6
f 525/2/6 524/2/6 526/2/6
f 527/2/6 528/2/6 529/2/6
f 529/2/6 528/2/6 530/2/6
f 531/1/6 532/1/6 534/1/6
f 532/3/6 533/3/6 535/3/6
f 534/1/6 532/1/6 535/1/6
f 535/3/6 533/3/6 536/3/6
f 537/2/6 538/2/6 539/2/6
f 539/2/6 538/2/6 540/2/6
f 541/1/6 542/1/6 543/1/6
f 541/1/6 543/1/6 545/1/6
f 543/3/6 544/3/6 546/3/6
f 545/1/6 543/1/6 546/1/6
f 546/3/6 544/3/6 547/3/6
f 548/1/6 549/1/6 551/1/6
f 549/3/6 550/3/6 551/3/6
f 551/3/6 550/3/6 552/3/6
f 548/1/6 551/1/6 555/1/6
f 555/1/6 551/1/6 556/1/6
f 553/2/6 554/2/6 557/2/6
f 557/2/6 554/2/6 558/2/6
f 559/1/6 560/1/6 563/1/6
f 563/1/6 560/1/6 564/1/6
f 561/2/6 562/2/6 565/2/6
f 565/2/6 562/2/6 566/2/6
f 567/1/6 568/1/6 571/1/6
f 571/1/6 568/1/6 572/1/6
f 569/2/6 570/2/6 573/2/6
f 573/2/6 570/2/6 574/2/6
f 575/2/6 576/2/6 577/2/6
f 577/2/6 576/2/6 578/2/6
f 579/1/6 580/1/6 581/1/6
f 581/1/6 580/1/6 582/1/6
f 579/1/6 581/1/6 585/1/6
f 585/1/6 581/1/6 586/1/6
f 583/2/6 584/2/6 587/2/6
f 587/2/6 584/2/6 588/2/6
f 588/2/6 589/2/6 593/2/6
f 593/2/6 589/2/6 594/2/6
f 592/2/6 593/2/6 595/2/6
f 595/2/6 593/2/6 596/2/6
f 590/1/6 591/1/6 597/1/6
f 590/1/6 597/1/6 599/1/6
f 597/1/6 598/1/6 599/1/6
f 599/1/6 598/1/6 600/1/6
f 603/2/6 604/2/6 605/2/6
f 605/2/6 604/2/6 606/2/6
f 601/2/6 602/2/6 608/2/6
f 608/2/6 602/2/6 609/2/6
f 610/1/6 611/1/6 612/1/6
f 612/1/6 611/1/6 613/1/6
f 607/1/6 608/1/6 614/1/6
f 614/1/6 608/1/6 615/1/6
f 613/1/6 611/1/6 617/1/6
f 617/1/6 611/1/6 618/1/6
f 615/2/6 616/2/6 621/2/6
f 621/2/6 616/2/6 622/2/6
f 619/2/6 620/2/6 623/2/6
f 623/2/6 620/2/6 624/2/6
f 625/2/6 626/2/6 631/2/6
f 628/2/6 629/2/6 632/2/6
f 627/2/6 628/2/6 632/2/6
f 630/2/6 631/2/6 634/2/6
f 631/2/6 626/2/6 635/2/6
f 634/2/6 631/2/6 635/2/6
f 635/2/6 626/2/6 636/2/6
f 632/1/6 633/1/6 637/1/6
f 633/1/6 634/1/6 637/1/6
f 627/2/6 632/2/6 637/2/6
f 637/1/6 634/1/6 638/1/6
f 634/2/6 635/2/6 639/2/6
f 638/1/6 634/1/6 639/1/6
f 635/1/6 636/1/6 640/1/6
f 639/2/6 635/2/6 640/2/6
f 640/1/6 636/1/6 641/1/6
f 627/2/6 637/2/6 642/2/6
f 642/2/6 637/2/6 643/2/6
f 643/2/6 637/2/6 644/2/6
f 640/2/6 641/2/6 645/2/6
f 639/2/6 640/2/6 645/2/6
f 645/2/6 641/2/6 646/2/6
f 646/2/6 641/2/6 647/2/6
f 647/2/6 641/2/6 648/2/6
f 649/3/6 650/3/6 652/3/6
f 650/4/6 651/4/6 653/4/6
f 652/3/6 650/3/6 653/3/6
f 653/4/6 651/4/6 654/4/6
f 652/4/6 653/4/6 656/4/6
f 656/4/6 653/4/6 657/4/6
f 654/2/6 655/2/6 659/2/6
f 659/2/6 655/2/6 660/2/6
f 657/2/6 658/2/6 661/2/6
f 658/1/6 659/1/6 662/1/6
f 661/2/6 658/2/6 662/2/6
f 662/1/6 659/1/6 663/1/6
f 664/2/6 665/2/6 668/2/6
f 665/1/6 666/1/6 669/1/6
f 668/2/6 665/2/6 669/2/6
f 669/1/6 666/1/6 670/1/6
f 667/4/6 668/4/6 672/4/6
f 672/4/6 668/4/6 673/4/6
f 670/2/6 671/2/6 674/2/6
f 674/2/6 671/2/6 675/2/6
f 672/3/6 673/3/6 676/3/6
f 673/4/6 674/4/6 677/4/6
f 676/3/6 673/3/6 677/3/6
f 677/4/6 674/4/6 678/4/6
f 679/2/6 680/2/6 681/2/6
f 681/2/6 680/2/6 682/2/6
f 683/2/6 684/2/6 685/2/6
f 685/2/6 684/2/6 686/2/6
